<svg width="40" height="40" viewBox="0 0 40 40" fill="none" xmlns="http://www.w3.org/2000/svg">
<path d="M5 6.00002H14C15.5913 6.00002 17.1174 6.65557 18.2426 7.82247C19.3679 8.98936 20 10.572 20 12.2222V34C20 32.7623 19.5259 31.5754 18.682 30.7002C17.8381 29.825 16.6935 29.3334 15.5 29.3334H5V6.00002Z" stroke="white" stroke-width="3" stroke-linecap="round" stroke-linejoin="round"/>
<path d="M35 6.00002H26C24.4087 6.00002 22.8826 6.65557 21.7574 7.82247C20.6321 8.98936 20 10.572 20 12.2222V34C20 32.7623 20.4741 31.5754 21.318 30.7002C22.1619 29.825 23.3065 29.3334 24.5 29.3334H35V6.00002Z" stroke="white" stroke-width="3" stroke-linecap="round" stroke-linejoin="round"/>
</svg>
